<svg width="42" height="41" fill="none" xmlns="http://www.w3.org/2000/svg"><path d="M35.698 4.49H6.24a1.28 1.28 0 00-1.28 1.28v29.46c0 .708.572 1.28 1.28 1.28H35.7a1.28 1.28 0 001.28-1.28V5.77a1.28 1.28 0 00-1.28-1.28zM14.456 31.775h-4.75v-15.28h4.75v15.282zm-2.373-17.37a2.754 2.754 0 110-5.509 2.754 2.754 0 010 5.508zm20.16 17.37h-4.746v-7.432c0-1.773-.032-4.051-2.47-4.051-2.47 0-2.85 1.93-2.85 3.922v7.562h-4.743V16.494h4.555v2.089h.064c.633-1.2 2.182-2.47 4.495-2.47 4.811 0 5.696 3.166 5.696 7.281v8.382z" fill="#fff"/></svg>